<svg xmlns="http://www.w3.org/2000/svg" version="1.1" viewBox="164.1220338983051 202.4448 1034.2146892655367 362.496" style="max-height: 500px" width="1034.2146892655367" height="362.496">
<g id="#040404ff">
</g>
<g id="#1f9f9bff">
<path d="M 227.24 211.30 C 239.81 210.96 252.41 211.65 264.97 210.87 C 274.32 211.55 283.72 210.06 293.08 211.07 C 306.05 211.50 319.04 211.09 331.99 210.98 C 349.33 211.62 366.67 210.78 383.99 211.11 C 397.65 210.11 411.31 211.43 424.98 211.24 C 429.32 211.40 433.65 210.57 437.98 211.15 C 449.30 211.46 460.63 210.93 471.95 211.40 C 488.03 212.65 503.31 221.21 513.07 234.00 C 521.76 244.23 525.34 257.80 525.35 271.02 C 525.38 347.02 525.38 423.02 525.34 499.03 C 524.94 522.36 509.10 544.35 487.38 552.64 C 479.41 556.04 470.60 556.81 462.02 556.65 C 385.35 556.61 308.68 556.69 232.01 556.65 C 212.97 557.10 194.54 546.91 183.55 531.59 C 176.84 521.72 172.13 510.09 172.31 498.01 C 172.26 422.35 172.34 346.68 172.34 271.01 C 171.99 252.40 181.23 234.07 196.02 222.87 C 205.03 216.21 215.95 211.65 227.24 211.30 M 227.29 220.42 C 218.26 220.80 209.52 224.15 202.15 229.29 C 193.88 235.61 187.56 244.37 183.88 254.08 C 180.90 262.06 181.36 270.65 181.39 279.01 C 181.32 342.02 181.40 405.03 181.36 468.05 C 181.47 478.72 181.18 489.40 181.58 500.07 C 182.48 512.21 187.37 524.29 196.27 532.77 C 206.25 543.04 220.88 547.97 235.04 547.58 C 310.36 547.54 385.69 547.56 461.02 547.52 C 472.86 548.45 484.61 544.93 494.53 538.54 C 508.20 529.51 516.37 513.37 516.34 497.07 C 516.21 420.70 516.41 344.33 516.26 267.96 C 515.79 253.51 508.40 239.71 497.16 230.75 C 488.19 223.44 476.47 219.89 464.95 220.34 C 385.73 220.43 306.51 220.19 227.29 220.42 Z" opacity="1.00" fill="#1f9f9b"/>
<path d="M 348.99 241.13 C 349.85 240.32 351.24 240.24 352.22 240.88 C 375.33 259.83 399.25 277.81 422.64 296.43 C 437.16 307.12 451.23 318.42 465.25 329.76 C 473.60 335.74 481.33 342.54 489.58 348.66 C 493.27 351.53 497.12 354.20 500.62 357.31 C 500.63 362.37 500.76 367.44 500.54 372.50 C 491.29 372.41 482.03 372.51 472.78 372.40 C 434.18 342.62 395.66 312.72 357.06 282.94 C 355.03 281.21 353.00 279.42 350.52 278.37 C 340.76 287.04 329.85 294.28 319.80 302.60 C 290.45 324.92 260.87 346.91 232.05 369.92 C 230.52 370.95 229.08 372.60 227.09 372.52 C 217.55 372.53 208.00 372.52 198.46 372.58 C 198.20 367.51 198.29 362.44 198.42 357.37 C 211.80 346.66 225.59 336.45 239.21 326.04 C 241.96 323.85 245.58 322.37 247.37 319.21 C 247.45 301.49 247.40 283.76 247.43 266.04 C 247.62 264.93 246.92 262.41 248.81 262.63 C 261.68 262.47 274.56 262.68 287.43 262.56 C 287.60 271.00 287.35 279.46 287.59 287.91 C 292.41 285.21 296.44 281.36 300.80 278.02 C 309.79 271.82 318.18 264.82 326.78 258.13 C 334.53 252.93 341.58 246.78 348.99 241.13 Z" opacity="1.00" fill="#1f9f9b"/>
<path d="M 344.30 300.43 C 346.82 298.84 348.77 295.91 351.83 295.43 C 356.80 298.66 361.15 302.78 365.92 306.31 C 377.05 314.76 388.14 323.24 399.20 331.79 C 407.80 338.96 416.90 345.48 425.73 352.36 C 433.59 358.88 442.30 364.40 449.62 371.56 C 450.19 380.07 448.55 389.18 442.94 395.86 C 438.58 401.57 432.23 405.40 425.56 407.82 C 425.52 408.18 425.45 408.90 425.42 409.26 C 434.11 413.62 443.26 417.76 449.92 425.08 C 457.41 432.69 461.24 443.44 460.68 454.08 C 461.45 466.42 459.05 479.39 451.44 489.42 C 443.08 499.67 430.63 505.53 418.11 508.94 C 402.91 513.23 387.05 512.83 371.42 512.59 C 371.53 497.87 371.48 483.15 371.53 468.43 C 378.04 468.15 386.14 469.43 390.94 463.96 C 394.72 459.15 393.40 452.59 393.55 446.92 C 393.72 440.60 388.23 435.52 382.42 434.12 C 378.35 433.22 374.22 432.38 370.03 432.53 C 356.37 432.71 342.70 432.29 329.04 432.75 C 327.86 433.06 326.69 433.37 325.51 433.67 C 323.72 435.17 322.06 436.82 320.49 438.56 C 320.24 448.52 320.36 458.49 320.44 468.46 C 324.75 468.50 329.07 468.63 333.38 468.49 C 334.07 469.54 334.40 470.70 334.38 471.96 C 334.41 485.52 334.40 499.08 334.51 512.64 C 305.47 512.53 276.44 512.75 247.40 512.62 C 247.52 466.69 247.27 420.77 247.52 374.85 C 248.54 374.03 249.46 373.09 250.11 371.95 C 250.58 371.80 251.52 371.49 252.00 371.33 C 282.57 347.44 313.40 323.89 344.30 300.43 M 329.44 356.01 C 329.46 367.65 329.55 379.29 329.37 390.93 C 335.87 391.59 342.51 391.51 349.02 390.92 C 356.41 391.55 363.95 391.66 371.32 390.56 C 379.66 390.12 386.54 382.25 386.63 374.03 C 386.74 369.68 387.05 364.97 384.56 361.15 C 381.10 354.98 373.65 352.74 366.99 352.59 C 354.93 352.60 342.86 352.58 330.80 352.68 C 328.94 352.55 329.62 354.91 329.44 356.01 Z" opacity="1.00" fill="#1f9f9b"/>
<path d="M 847.38 301.39 C 853.14 301.49 858.90 301.44 864.67 301.40 C 864.95 322.60 864.53 343.78 864.70 365.01 C 864.86 371.34 864.22 377.73 865.26 384.01 C 865.61 386.23 864.92 388.41 864.43 390.55 C 858.85 390.34 853.26 390.68 847.69 390.41 C 845.69 389.43 847.07 386.73 846.65 385.07 C 842.87 384.89 840.45 388.21 837.09 389.29 C 824.04 395.10 806.53 389.78 800.19 376.61 C 795.32 368.29 794.73 358.29 795.82 348.92 C 797.31 339.93 802.37 330.97 810.61 326.59 C 818.23 321.91 828.12 321.15 836.47 324.29 C 840.39 325.69 843.45 328.56 846.59 331.17 C 847.19 321.26 845.74 311.20 847.38 301.39 M 825.42 338.65 C 820.66 339.72 816.99 343.52 815.12 347.90 C 811.79 356.44 813.41 367.91 821.50 373.24 C 825.26 376.04 830.16 375.96 834.59 375.37 C 842.99 373.21 847.47 364.13 846.69 355.94 C 847.22 350.03 844.40 344.02 839.41 340.79 C 835.36 337.88 830.13 338.11 825.42 338.65 Z" opacity="1.00" fill="#1f9f9b"/>
<path d="M 1128.54 301.51 C 1134.50 301.35 1140.46 301.47 1146.42 301.55 C 1146.65 317.67 1146.50 333.80 1146.54 349.92 C 1146.88 349.71 1147.54 349.28 1147.88 349.07 C 1149.12 346.40 1151.53 344.61 1153.36 342.38 C 1158.34 335.98 1163.20 329.46 1168.53 323.35 C 1175.65 323.53 1182.77 323.48 1189.89 323.50 C 1189.30 325.53 1187.89 327.11 1186.54 328.66 C 1178.87 337.33 1171.67 346.40 1164.01 355.08 C 1162.89 356.07 1163.09 357.93 1164.09 358.94 C 1170.84 366.24 1177.58 373.59 1183.65 381.49 C 1185.89 384.37 1188.88 386.76 1190.13 390.31 C 1183.05 390.62 1175.96 390.50 1168.88 390.48 C 1161.43 381.30 1154.62 371.57 1146.59 362.88 C 1146.21 371.96 1147.03 381.13 1146.18 390.15 C 1140.42 390.55 1134.45 390.80 1128.74 390.14 C 1128.30 360.61 1128.68 331.05 1128.54 301.51 Z" opacity="1.00" fill="#1f9f9b"/>
<path d="M 572.51 306.70 C 583.98 306.16 595.48 306.57 606.96 306.46 C 614.70 306.18 622.89 307.98 628.97 313.00 C 634.62 317.80 636.35 325.95 635.25 333.03 C 633.84 338.72 629.74 344.38 623.93 346.01 C 623.79 346.30 623.51 346.86 623.38 347.15 C 629.63 349.85 635.01 355.22 636.49 362.01 C 636.83 367.43 637.55 373.43 634.45 378.25 C 630.33 386.51 620.78 390.20 612.00 390.45 C 599.23 390.53 586.46 390.43 573.70 390.46 C 573.42 390.19 572.85 389.63 572.57 389.36 C 572.49 361.81 572.74 334.25 572.51 306.70 M 590.45 321.54 C 590.67 327.85 590.58 334.17 590.50 340.49 C 597.06 340.58 603.71 340.98 610.24 340.21 C 618.49 338.85 619.68 326.19 612.79 322.41 C 608.26 319.84 602.88 320.82 597.92 320.61 C 595.44 320.76 592.61 319.94 590.45 321.54 M 590.54 354.43 C 590.49 361.45 590.57 368.46 590.42 375.48 C 595.51 376.80 600.82 376.29 606.02 376.26 C 609.22 375.60 613.08 376.16 615.52 373.56 C 618.82 370.52 620.49 365.40 618.56 361.17 C 617.21 356.80 612.40 354.11 607.98 354.37 C 602.16 354.35 596.35 354.40 590.54 354.43 Z" opacity="1.00" fill="#1f9f9b"/>
<path d="M 904.31 306.45 C 917.23 306.63 930.15 306.32 943.07 306.49 C 950.83 306.97 958.79 310.28 963.43 316.75 C 966.67 321.40 967.01 327.39 966.27 332.84 C 965.01 339.28 959.84 344.30 954.13 347.10 C 959.40 349.32 964.54 353.00 966.75 358.48 C 970.32 366.25 968.34 375.81 963.08 382.33 C 957.72 388.20 949.60 390.15 941.95 390.48 C 929.43 390.41 916.91 390.55 904.39 390.49 C 904.14 362.48 904.34 334.46 904.31 306.45 M 922.31 340.61 C 927.49 340.56 932.67 340.71 937.86 340.61 C 940.94 340.47 944.44 340.04 946.52 337.47 C 949.28 334.93 948.61 330.82 948.28 327.48 C 947.10 324.46 944.44 321.60 941.03 321.36 C 934.94 319.95 928.67 321.00 922.50 320.49 C 922.20 327.19 922.43 333.90 922.31 340.61 M 922.34 354.31 C 922.39 361.39 922.46 368.47 922.34 375.55 C 925.88 375.61 929.39 376.84 932.93 376.04 C 937.63 374.98 943.38 376.97 947.10 373.04 C 950.87 370.24 951.08 365.03 949.97 360.85 C 948.32 357.46 944.91 354.45 940.99 354.43 C 934.77 354.24 928.55 354.33 922.34 354.31 Z" opacity="1.00" fill="#1f9f9b"/>
<path d="M 670.64 323.00 C 675.06 322.23 679.60 322.45 684.06 322.68 C 694.19 324.36 703.67 330.55 708.34 339.84 C 716.25 354.36 712.64 374.08 699.73 384.54 C 689.44 392.36 675.04 393.52 663.17 388.87 C 657.28 386.18 651.79 382.10 648.68 376.30 C 643.03 366.08 642.59 353.51 646.49 342.62 C 650.62 332.63 659.94 324.87 670.64 323.00 M 672.41 338.77 C 664.86 341.00 661.25 349.60 661.54 356.93 C 661.29 364.22 664.65 372.34 671.79 375.22 C 674.74 375.92 677.85 375.77 680.86 375.56 C 685.10 375.19 688.40 372.14 690.96 368.98 C 693.59 365.57 693.64 361.05 694.27 356.96 C 693.71 351.85 693.01 346.38 689.33 342.46 C 684.81 338.29 678.27 336.71 672.41 338.77 Z" opacity="1.00" fill="#1f9f9b"/>
<path d="M 739.56 330.90 C 743.92 326.98 749.01 323.48 755.01 322.89 C 764.59 321.27 775.44 324.66 781.03 332.92 C 784.54 337.47 785.73 343.36 785.67 349.00 C 785.76 362.85 785.81 376.70 785.62 390.55 C 779.93 390.53 774.24 390.50 768.55 390.55 C 768.16 377.69 768.59 364.80 768.27 351.94 C 767.90 348.26 766.75 344.52 764.45 341.58 C 759.52 336.64 751.37 336.46 745.52 339.80 C 742.08 342.07 740.76 346.20 739.70 349.96 C 739.26 363.46 739.95 376.99 739.40 390.49 C 733.73 390.46 728.07 390.47 722.40 390.51 C 722.18 368.15 722.27 345.79 722.32 323.43 C 728.05 323.53 733.78 323.51 739.52 323.54 C 739.54 325.99 739.55 328.44 739.56 330.90 Z" opacity="1.00" fill="#1f9f9b"/>
<path d="M 980.52 336.58 C 988.15 322.69 1008.24 317.97 1021.38 326.71 C 1023.53 328.23 1025.28 330.24 1027.30 331.93 C 1027.26 329.15 1027.29 326.37 1027.43 323.59 C 1033.12 323.61 1038.82 323.57 1044.52 323.55 C 1044.55 345.45 1044.61 367.36 1044.46 389.25 C 1044.19 389.56 1043.64 390.18 1043.36 390.49 C 1038.10 390.62 1032.85 390.39 1027.60 390.51 C 1026.54 387.78 1026.51 384.85 1026.43 381.98 C 1023.29 385.06 1020.15 388.41 1015.89 389.91 C 1001.84 395.22 984.56 387.90 978.99 373.87 C 973.93 362.09 974.15 347.81 980.52 336.58 M 1005.09 338.75 C 991.76 343.36 989.51 363.49 1000.01 372.13 C 1005.78 377.44 1015.82 376.87 1021.23 371.26 C 1025.03 367.98 1026.20 362.79 1026.57 358.00 C 1027.02 351.56 1024.83 344.44 1019.24 340.73 C 1015.22 337.67 1009.80 338.04 1005.09 338.75 Z" opacity="1.00" fill="#1f9f9b"/>
<path d="M 1067.46 328.37 C 1072.12 324.63 1078.17 323.48 1083.93 322.64 C 1092.50 321.98 1101.79 323.69 1108.47 329.43 C 1113.54 333.68 1117.53 339.67 1118.00 346.41 C 1111.98 346.74 1105.94 346.61 1099.92 346.51 C 1098.52 344.17 1097.34 341.54 1095.10 339.87 C 1089.72 335.92 1081.26 336.65 1076.91 341.85 C 1071.50 347.52 1071.93 356.00 1072.72 363.22 C 1073.75 370.50 1080.37 377.25 1088.05 376.44 C 1093.50 376.59 1097.88 372.34 1099.98 367.64 C 1105.83 367.50 1111.69 367.69 1117.54 367.49 C 1118.10 372.55 1114.85 377.05 1112.00 380.92 C 1099.24 396.31 1072.19 394.70 1060.61 378.69 C 1056.43 372.31 1054.03 364.65 1054.39 357.00 C 1053.89 346.17 1058.26 334.60 1067.46 328.37 Z" opacity="1.00" fill="#1f9f9b"/>
<path d="M 757.28 412.92 C 757.42 411.85 756.94 409.54 758.80 409.90 C 762.29 409.78 765.80 409.91 769.30 409.87 C 769.30 423.22 769.39 436.58 769.36 449.94 C 775.45 442.47 781.66 435.12 787.93 427.80 C 793.08 427.82 798.23 427.74 803.38 427.79 C 796.05 437.08 787.48 445.32 779.69 454.23 C 783.15 458.49 787.33 462.10 790.79 466.36 C 794.84 471.31 799.89 475.48 803.23 480.98 C 798.15 481.26 793.07 481.12 787.99 481.12 C 781.96 473.33 775.07 466.22 769.33 458.21 C 769.45 465.79 769.27 473.37 769.50 480.94 C 765.44 481.15 761.35 481.38 757.33 480.79 C 757.36 458.16 757.22 435.54 757.28 412.92 Z" opacity="1.00" fill="#1f9f9b"/>
<path d="M 969.29 410.21 C 973.25 409.66 977.28 409.63 981.25 410.15 C 981.12 433.70 981.31 457.26 981.18 480.81 C 977.31 480.94 973.15 481.83 969.45 480.72 C 969.02 457.23 969.46 433.71 969.29 410.21 Z" opacity="1.00" fill="#1f9f9b"/>
<path d="M 572.37 413.82 C 576.78 414.14 581.39 413.32 585.67 414.41 C 591.04 424.62 595.06 435.51 599.93 445.97 C 602.60 452.19 605.65 458.25 607.99 464.61 C 614.93 448.74 621.80 432.84 628.92 417.05 C 629.50 416.02 629.84 414.70 630.92 414.05 C 635.09 413.71 639.28 414.02 643.46 413.87 C 643.35 436.27 643.78 458.69 643.33 481.08 C 639.43 481.14 635.53 481.13 631.63 481.08 C 630.82 467.40 631.51 453.67 631.38 439.97 C 632.38 437.92 632.19 435.96 629.73 435.48 L 631.90 437.10 C 630.63 438.69 629.54 440.44 628.76 442.32 C 623.34 455.13 617.65 467.83 612.19 480.61 C 609.29 481.14 606.35 481.06 603.45 480.72 C 597.37 465.78 590.78 451.05 584.38 436.24 C 584.37 451.21 584.85 466.20 584.27 481.17 C 580.37 481.25 576.48 481.13 572.59 481.22 C 572.00 458.77 572.30 436.28 572.37 413.82 Z" opacity="1.00" fill="#1f9f9b"/>
<path d="M 870.92 414.71 C 875.01 414.59 879.10 414.53 883.20 414.50 C 883.17 418.94 883.15 423.38 883.16 427.83 C 887.14 427.84 891.13 427.57 895.11 427.85 C 896.14 430.87 895.28 434.28 895.45 437.45 C 891.34 437.46 887.23 437.44 883.13 437.64 C 883.34 447.12 883.15 456.60 883.14 466.08 C 882.97 468.05 884.06 470.31 886.12 470.76 C 889.22 471.36 892.39 471.27 895.54 471.36 C 895.62 474.64 895.65 477.93 895.25 481.20 C 888.57 480.97 880.88 482.37 875.29 477.79 C 870.94 474.20 870.61 468.21 870.80 463.01 C 870.87 454.61 870.75 446.22 870.84 437.83 C 868.75 437.68 866.68 437.53 864.61 437.36 C 864.58 434.15 864.64 430.95 864.80 427.75 C 866.71 427.72 868.61 427.72 870.54 427.78 C 871.14 423.45 870.74 419.07 870.92 414.71 Z" opacity="1.00" fill="#1f9f9b"/>
<path d="M 1117.11 437.08 C 1125.92 425.06 1144.80 423.45 1156.17 432.64 C 1163.64 438.90 1165.71 449.43 1164.63 458.72 C 1151.21 458.96 1137.79 458.58 1124.38 458.54 C 1125.12 463.43 1127.60 468.47 1132.34 470.55 C 1138.45 473.19 1147.49 471.77 1150.04 464.86 C 1154.37 464.48 1158.73 464.70 1163.07 464.98 C 1161.01 472.30 1155.00 478.21 1147.85 480.62 C 1138.68 483.87 1127.77 481.86 1120.50 475.36 C 1110.25 465.71 1109.68 448.56 1117.11 437.08 M 1124.56 449.23 C 1133.64 449.24 1142.72 449.19 1151.80 449.20 C 1152.51 441.77 1144.88 436.28 1137.96 437.12 C 1131.21 437.06 1125.47 442.69 1124.56 449.23 Z" opacity="1.00" fill="#1f9f9b"/>
<path d="M 669.10 428.35 C 678.12 425.03 689.19 427.38 695.58 434.73 C 695.61 432.39 695.64 430.06 695.69 427.73 C 699.59 427.62 703.51 427.59 707.42 427.68 C 707.59 445.43 707.46 463.18 707.53 480.93 C 703.55 481.23 699.55 481.28 695.57 480.89 C 695.54 478.34 695.72 475.80 695.74 473.26 C 694.79 473.81 693.60 474.49 693.85 475.86 C 688.13 481.03 679.90 483.38 672.37 481.44 C 664.56 479.80 658.54 473.62 655.36 466.52 C 651.99 458.49 652.18 449.07 655.74 441.13 C 658.35 435.37 663.31 430.83 669.10 428.35 M 677.54 437.72 C 666.35 439.88 662.54 454.20 667.59 463.36 C 671.10 471.45 682.84 473.98 689.46 468.25 C 696.97 461.90 697.10 449.39 690.99 442.04 C 687.64 438.50 682.34 436.67 677.54 437.72 Z" opacity="1.00" fill="#1f9f9b"/>
<path d="M 812.95 435.96 C 822.81 423.76 844.04 423.69 853.80 436.02 C 858.87 442.07 860.04 450.45 859.04 458.06 L 858.31 458.57 C 845.26 458.99 832.19 458.45 819.13 458.54 C 819.65 463.29 822.14 467.92 826.44 470.23 C 832.76 473.46 842.10 471.73 844.97 464.64 C 849.23 464.74 853.55 464.39 857.78 465.22 C 855.29 472.11 849.78 477.89 842.91 480.45 C 833.77 483.80 822.69 482.07 815.45 475.42 C 804.90 465.45 803.68 447.14 812.95 435.96 M 820.65 444.86 C 819.93 446.04 820.02 448.14 818.01 447.95 C 818.24 448.70 818.50 449.46 818.82 450.21 L 820.76 449.39 C 829.38 449.26 838.02 449.26 846.65 449.30 C 846.53 446.69 845.70 444.14 844.14 442.04 C 838.33 434.49 824.21 435.71 820.65 444.86 Z" opacity="1.00" fill="#1f9f9b"/>
<path d="M 904.80 427.81 C 908.73 427.73 912.67 427.77 916.61 427.65 C 916.90 429.87 917.06 432.11 917.07 434.36 C 926.23 424.14 944.33 424.42 952.98 435.10 C 959.93 443.46 961.20 455.67 957.48 465.69 C 954.15 475.00 944.95 482.01 934.99 482.17 C 928.05 482.59 921.46 479.19 916.97 474.06 C 917.04 484.69 916.86 495.33 916.86 505.96 C 912.86 506.15 908.84 506.22 904.85 505.91 C 904.67 479.88 904.90 453.84 904.80 427.81 M 925.47 438.86 C 914.88 444.46 914.00 461.24 923.29 468.47 C 929.49 473.56 939.61 471.75 944.07 465.19 C 948.66 458.56 948.40 448.81 943.27 442.54 C 939.04 437.48 931.34 435.68 925.47 438.86 Z" opacity="1.00" fill="#1f9f9b"/>
<path d="M 1005.25 429.01 C 1012.44 425.85 1021.09 426.14 1027.97 430.00 C 1029.97 431.19 1031.50 433.07 1033.65 434.07 C 1033.63 431.92 1033.62 429.78 1033.60 427.64 C 1037.50 427.51 1041.42 427.55 1045.34 427.63 C 1045.23 445.46 1045.60 463.30 1045.29 481.12 C 1041.33 481.09 1037.38 481.15 1033.43 481.25 C 1033.38 479.44 1032.85 477.56 1033.50 475.81 C 1035.21 473.94 1033.04 473.17 1031.86 472.53 L 1033.66 474.41 C 1029.62 477.60 1025.31 480.82 1020.09 481.64 C 1010.22 483.91 999.75 478.37 994.86 469.77 C 990.16 461.54 989.28 451.03 993.11 442.30 C 995.49 436.67 999.87 431.91 1005.25 429.01 M 1013.70 438.17 C 1003.83 441.44 1000.75 454.31 1005.11 463.00 C 1008.52 471.02 1019.85 473.87 1026.67 468.48 C 1034.46 462.98 1034.99 451.18 1030.15 443.57 C 1026.66 438.44 1019.54 436.18 1013.70 438.17 Z" opacity="1.00" fill="#1f9f9b"/>
<path d="M 1074.51 427.64 C 1080.69 426.11 1087.33 426.70 1093.21 429.13 C 1099.68 432.03 1104.69 438.28 1105.77 445.34 C 1101.65 445.32 1097.55 445.22 1093.45 445.33 C 1090.55 437.29 1079.43 434.67 1072.99 440.03 C 1068.17 444.21 1067.05 451.13 1067.67 457.17 C 1068.24 462.43 1070.47 468.33 1075.71 470.52 C 1082.15 473.47 1090.70 470.78 1093.13 463.81 C 1097.32 463.38 1101.54 463.66 1105.75 463.63 C 1104.71 469.59 1100.97 475.04 1095.78 478.16 C 1089.09 482.40 1080.54 482.83 1073.06 480.76 C 1064.49 478.27 1057.84 470.74 1056.07 462.04 C 1054.78 455.53 1054.63 448.47 1057.41 442.31 C 1060.39 435.14 1066.75 429.13 1074.51 427.64 Z" opacity="1.00" fill="#1f9f9b"/>
<path d="M 720.62 427.72 C 724.52 427.63 728.42 427.64 732.33 427.68 C 732.40 430.01 732.42 432.34 732.37 434.68 C 735.98 429.72 742.09 426.24 748.35 427.08 C 748.29 431.10 748.29 435.12 748.17 439.14 C 744.08 439.29 739.36 438.96 736.14 441.97 C 732.79 445.37 732.43 450.48 732.41 454.99 C 732.46 463.64 732.44 472.29 732.48 480.95 C 728.52 481.18 724.55 481.25 720.60 480.97 C 720.69 463.22 720.52 445.47 720.62 427.72 Z" opacity="1.00" fill="#1f9f9b"/>
</g>
</svg>