<svg xmlns="http://www.w3.org/2000/svg" version="1.1" viewBox="164.1220338983051 202.4448 371.88700564971754 360.96" style="max-height: 500px" width="371.88700564971754" height="360.96">
<g id="#040404ff">
</g>
<g id="#1f9f9bff">
<path d="M 227.24 211.30 C 239.81 210.96 252.41 211.65 264.97 210.87 C 274.32 211.55 283.72 210.06 293.08 211.07 C 306.05 211.50 319.04 211.09 331.99 210.98 C 349.33 211.62 366.67 210.78 383.99 211.11 C 397.65 210.11 411.31 211.43 424.98 211.24 C 429.32 211.40 433.65 210.57 437.98 211.15 C 449.30 211.46 460.63 210.93 471.95 211.40 C 488.03 212.65 503.31 221.21 513.07 234.00 C 521.76 244.23 525.34 257.80 525.35 271.02 C 525.38 347.02 525.38 423.02 525.34 499.03 C 524.94 522.36 509.10 544.35 487.38 552.64 C 479.41 556.04 470.60 556.81 462.02 556.65 C 385.35 556.61 308.68 556.69 232.01 556.65 C 212.97 557.10 194.54 546.91 183.55 531.59 C 176.84 521.72 172.13 510.09 172.31 498.01 C 172.26 422.35 172.34 346.68 172.34 271.01 C 171.99 252.40 181.23 234.07 196.02 222.87 C 205.03 216.21 215.95 211.65 227.24 211.30 M 227.29 220.42 C 218.26 220.80 209.52 224.15 202.15 229.29 C 193.88 235.61 187.56 244.37 183.88 254.08 C 180.90 262.06 181.36 270.65 181.39 279.01 C 181.32 342.02 181.40 405.03 181.36 468.05 C 181.47 478.72 181.18 489.40 181.58 500.07 C 182.48 512.21 187.37 524.29 196.27 532.77 C 206.25 543.04 220.88 547.97 235.04 547.58 C 310.36 547.54 385.69 547.56 461.02 547.52 C 472.86 548.45 484.61 544.93 494.53 538.54 C 508.20 529.51 516.37 513.37 516.34 497.07 C 516.21 420.70 516.41 344.33 516.26 267.96 C 515.79 253.51 508.40 239.71 497.16 230.75 C 488.19 223.44 476.47 219.89 464.95 220.34 C 385.73 220.43 306.51 220.19 227.29 220.42 Z" opacity="1.00" fill="#1f9f9b"/>
<path d="M 348.99 241.13 C 349.85 240.32 351.24 240.24 352.22 240.88 C 375.33 259.83 399.25 277.81 422.64 296.43 C 437.16 307.12 451.23 318.42 465.25 329.76 C 473.60 335.74 481.33 342.54 489.58 348.66 C 493.27 351.53 497.12 354.20 500.62 357.31 C 500.63 362.37 500.76 367.44 500.54 372.50 C 491.29 372.41 482.03 372.51 472.78 372.40 C 434.18 342.62 395.66 312.72 357.06 282.94 C 355.03 281.21 353.00 279.42 350.52 278.37 C 340.76 287.04 329.85 294.28 319.80 302.60 C 290.45 324.92 260.87 346.91 232.05 369.92 C 230.52 370.95 229.08 372.60 227.09 372.52 C 217.55 372.53 208.00 372.52 198.46 372.58 C 198.20 367.51 198.29 362.44 198.42 357.37 C 211.80 346.66 225.59 336.45 239.21 326.04 C 241.96 323.85 245.58 322.37 247.37 319.21 C 247.45 301.49 247.40 283.76 247.43 266.04 C 247.62 264.93 246.92 262.41 248.81 262.63 C 261.68 262.47 274.56 262.68 287.43 262.56 C 287.60 271.00 287.35 279.46 287.59 287.91 C 292.41 285.21 296.44 281.36 300.80 278.02 C 309.79 271.82 318.18 264.82 326.78 258.13 C 334.53 252.93 341.58 246.78 348.99 241.13 Z" opacity="1.00" fill="#1f9f9b"/>
<path d="M 344.30 300.43 C 346.82 298.84 348.77 295.91 351.83 295.43 C 356.80 298.66 361.15 302.78 365.92 306.31 C 377.05 314.76 388.14 323.24 399.20 331.79 C 407.80 338.96 416.90 345.48 425.73 352.36 C 433.59 358.88 442.30 364.40 449.62 371.56 C 450.19 380.07 448.55 389.18 442.94 395.86 C 438.58 401.57 432.23 405.40 425.56 407.82 C 425.52 408.18 425.45 408.90 425.42 409.26 C 434.11 413.62 443.26 417.76 449.92 425.08 C 457.41 432.69 461.24 443.44 460.68 454.08 C 461.45 466.42 459.05 479.39 451.44 489.42 C 443.08 499.67 430.63 505.53 418.11 508.94 C 402.91 513.23 387.05 512.83 371.42 512.59 C 371.53 497.87 371.48 483.15 371.53 468.43 C 378.04 468.15 386.14 469.43 390.94 463.96 C 394.72 459.15 393.40 452.59 393.55 446.92 C 393.72 440.60 388.23 435.52 382.42 434.12 C 378.35 433.22 374.22 432.38 370.03 432.53 C 356.37 432.71 342.70 432.29 329.04 432.75 C 327.86 433.06 326.69 433.37 325.51 433.67 C 323.72 435.17 322.06 436.82 320.49 438.56 C 320.24 448.52 320.36 458.49 320.44 468.46 C 324.75 468.50 329.07 468.63 333.38 468.49 C 334.07 469.54 334.40 470.70 334.38 471.96 C 334.41 485.52 334.40 499.08 334.51 512.64 C 305.47 512.53 276.44 512.75 247.40 512.62 C 247.52 466.69 247.27 420.77 247.52 374.85 C 248.54 374.03 249.46 373.09 250.11 371.95 C 250.58 371.80 251.52 371.49 252.00 371.33 C 282.57 347.44 313.40 323.89 344.30 300.43 M 329.44 356.01 C 329.46 367.65 329.55 379.29 329.37 390.93 C 335.87 391.59 342.51 391.51 349.02 390.92 C 356.41 391.55 363.95 391.66 371.32 390.56 C 379.66 390.12 386.54 382.25 386.63 374.03 C 386.74 369.68 387.05 364.97 384.56 361.15 C 381.10 354.98 373.65 352.74 366.99 352.59 C 354.93 352.60 342.86 352.58 330.80 352.68 C 328.94 352.55 329.62 354.91 329.44 356.01 Z" opacity="1.00" fill="#1f9f9b"/>
</g>
</svg>